<?xml version="1.0" encoding="iso-8859-1"?>
<!-- Generator: Adobe Illustrator 18.1.1, SVG Export Plug-In . SVG Version: 6.00 Build 0)  -->
<svg version="1.1" id="Capa_1" xmlns="http://www.w3.org/2000/svg" xmlns:xlink="http://www.w3.org/1999/xlink" x="0px" y="0px"
	 viewBox="0 0 612 612" style="enable-background:new 0 0 612 612;" xml:space="preserve">
<g>
	<path d="M72.736,265.886h134.558v82.49H72.736V265.886z M72.736,462.292h134.558v-82.49H72.736V462.292z M238.719,462.292h134.561
		v-82.49H238.719V462.292z M404.706,348.376h134.558v-82.49H404.706V348.376z M612,183.166v300.161
		c0,27.154-22.089,49.243-49.243,49.243H49.24C22.089,532.57,0,510.482,0,483.328V183.166c0-24.973,20.316-45.29,45.286-45.29
		h17.447V95.142c0-8.68,7.036-15.712,15.712-15.712h52.395c8.676,0,15.712,7.033,15.712,15.712v42.735h318.891V95.142
		c0-8.68,7.033-15.712,15.712-15.712h52.398c8.68,0,15.712,7.033,15.712,15.712v42.735h17.447
		C591.684,137.877,612,158.193,612,183.166z M496.869,177.896h20.973v-67.042h-20.973V177.896z M94.158,177.896h20.97v-67.042
		h-20.97C94.158,110.854,94.158,177.896,94.158,177.896z M570.689,250.174c0-8.68-7.033-15.712-15.712-15.712H388.993H223.007
		H57.024c-8.676,0-15.712,7.033-15.712,15.712v113.915v113.915c0,8.68,7.036,15.712,15.712,15.712h165.983h165.986h165.983
		c8.68,0,15.712-7.033,15.712-15.712V364.089V250.174z M238.719,348.376h134.561v-82.49H238.719V348.376z M404.706,462.292h134.558
		v-82.49H404.706V462.292z"/>
</g>
<g>
</g>
<g>
</g>
<g>
</g>
<g>
</g>
<g>
</g>
<g>
</g>
<g>
</g>
<g>
</g>
<g>
</g>
<g>
</g>
<g>
</g>
<g>
</g>
<g>
</g>
<g>
</g>
<g>
</g>
</svg>
